# Blender v2.79 (sub 0) OBJ File: 'untitled.blend'
# www.blender.org
mtllib WindTurbine.mtl
o Cube
v -1.000000 -0.349034 0.794338
v -1.000000 0.349034 0.794338
v -1.000000 -0.349034 -0.794338
v -1.000000 0.349034 -0.794338
v 1.000000 -0.349034 0.794338
v 1.000000 0.349034 0.794338
v 1.000000 -0.349034 -0.794338
v 1.000000 0.349034 -0.794338
v -0.691595 0.349034 0.369306
v -0.691595 0.349034 -0.369306
v 0.238251 0.349034 -0.369306
v 0.238251 0.349034 0.369306
v -0.691595 6.650266 0.369306
v -0.691595 6.650266 -0.369306
v 0.238251 6.650266 -0.369306
v 0.238251 6.650266 0.369306
v -1.056717 6.650266 0.651306
v -1.056717 6.650266 -0.651306
v 1.229412 6.650266 -0.651306
v 1.229412 6.650266 0.651306
v -1.056717 7.767255 0.651306
v -1.056717 7.767255 -0.651306
v 1.229412 7.767255 -0.651306
v 1.229412 7.767255 0.651306
v 1.229412 6.871499 -0.393308
v 1.229412 6.871499 0.393308
v 1.229412 7.546022 -0.393308
v 1.229412 7.546022 0.393308
v 1.400057 6.871499 -0.393308
v 1.400057 6.871499 0.393308
v 1.400057 7.546022 -0.393308
v 1.400057 7.546022 0.393308
v -1.000000 -0.230299 -0.217569
v -1.000000 -0.230299 0.217569
v -1.000000 0.230299 0.217569
v -1.000000 0.230299 -0.217569
v -1.061130 -0.230299 -0.217569
v -1.061130 -0.230299 0.217569
v -1.061130 0.230299 0.217569
v -1.061130 0.230299 -0.217569
v -1.061130 -0.166619 -0.157409
v -1.061130 -0.166619 0.157409
v -1.061130 0.166619 0.157409
v -1.061130 0.166619 -0.157409
v -1.106880 -0.166619 -0.157409
v -1.106880 -0.166619 0.157409
v -1.106880 0.166619 0.157409
v -1.106880 0.166619 -0.157409
vt 0.476562 0.847656
vt 0.476562 0.929688
vt 0.468750 0.898438
vt 0.468750 0.878906
vt 0.476562 0.964844
vt 0.578125 0.929688
vt 0.578125 0.964844
vt 0.613281 0.929688
vt 0.578125 0.847656
vt 0.613281 0.847656
vt 0.578125 0.812500
vt 0.476562 0.812500
vt 0.441406 0.929688
vt 0.339844 0.929688
vt 0.339844 0.847656
vt 0.441406 0.847656
vt 0.492188 0.871094
vt 0.492188 0.906250
vt 0.046875 0.664062
vt 0.097656 0.664062
vt 0.097656 0.984375
vt 0.046875 0.984375
vt 0.539062 0.871094
vt 0.539062 0.906250
vt 0.406250 0.691406
vt 0.406250 0.652344
vt 0.457031 0.640625
vt 0.457031 0.703125
vt 0.132812 0.664062
vt 0.179688 0.664062
vt 0.179688 0.984375
vt 0.132812 0.984375
vt 0.011719 0.664062
vt 0.011719 0.984375
vt 0.339844 0.640625
vt 0.339844 0.703125
vt 0.277344 0.703125
vt 0.277344 0.640625
vt 0.359375 0.652344
vt 0.359375 0.691406
vt 0.519531 0.640625
vt 0.632812 0.640625
vt 0.632812 0.703125
vt 0.519531 0.703125
vt 0.457031 0.761719
vt 0.339844 0.761719
vt 0.339844 0.582031
vt 0.457031 0.582031
vt 0.468750 0.691406
vt 0.507812 0.691406
vt 0.207031 0.968750
vt 0.207031 0.933594
vt 0.214844 0.933594
vt 0.214844 0.968750
vt 0.507812 0.652344
vt 0.468750 0.652344
vt 0.250000 0.933594
vt 0.250000 0.968750
vt 0.214844 0.925781
vt 0.250000 0.925781
vt 0.257812 0.933594
vt 0.257812 0.968750
vt 0.250000 0.976562
vt 0.214844 0.976562
vt 0.246094 0.871094
vt 0.246094 0.894531
vt 0.242188 0.894531
vt 0.242188 0.871094
vt 0.449219 0.878906
vt 0.449219 0.898438
vt 0.218750 0.894531
vt 0.222656 0.890625
vt 0.238281 0.890625
vt 0.242188 0.898438
vt 0.218750 0.898438
vt 0.218750 0.867188
vt 0.242188 0.867188
vt 0.218750 0.871094
vt 0.214844 0.894531
vt 0.214844 0.871094
vt 0.214844 0.839844
vt 0.214844 0.820312
vt 0.218750 0.820312
vt 0.218750 0.839844
vt 0.238281 0.875000
vt 0.222656 0.875000
vt 0.238281 0.820312
vt 0.238281 0.839844
vt 0.242188 0.820312
vt 0.242188 0.839844
vt 0.238281 0.843750
vt 0.218750 0.843750
vt 0.218750 0.816406
vt 0.238281 0.816406
vn -1.0000 0.0000 0.0000
vn 0.0000 0.0000 -1.0000
vn 1.0000 0.0000 0.0000
vn 0.0000 0.0000 1.0000
vn 0.0000 -1.0000 0.0000
vn 0.0000 1.0000 0.0000
usemtl None
s off
f 2/1/1 4/2/1 36/3/1 35/4/1
f 3/5/2 4/2/2 8/6/2 7/7/2
f 7/8/3 8/6/3 6/9/3 5/10/3
f 5/11/4 6/9/4 2/1/4 1/12/4
f 3/13/5 7/14/5 5/15/5 1/16/5
f 4/2/6 2/1/6 9/17/6 10/18/6
f 9/19/4 12/20/4 16/21/4 13/22/4
f 2/1/6 6/9/6 12/23/6 9/17/6
f 8/6/6 4/2/6 10/18/6 11/24/6
f 6/9/6 8/6/6 11/24/6 12/23/6
f 16/25/5 15/26/5 19/27/5 20/28/5
f 11/29/2 10/30/2 14/31/2 15/32/2
f 12/20/3 11/29/3 15/32/3 16/21/3
f 10/33/1 9/19/1 13/22/1 14/34/1
f 18/35/1 17/36/1 21/37/1 22/38/1
f 14/39/5 13/40/5 17/36/5 18/35/5
f 13/40/5 16/25/5 20/28/5 17/36/5
f 15/26/5 14/39/5 18/35/5 19/27/5
f 23/41/6 22/42/6 21/43/6 24/44/6
f 17/36/4 20/28/4 24/45/4 21/46/4
f 19/27/2 18/35/2 22/47/2 23/48/2
f 24/44/3 20/28/3 26/49/3 28/50/3
f 28/51/4 26/52/4 30/53/4 32/54/4
f 23/41/3 24/44/3 28/50/3 27/55/3
f 19/27/3 23/41/3 27/55/3 25/56/3
f 20/28/3 19/27/3 25/56/3 26/49/3
f 30/53/3 29/57/3 31/58/3 32/54/3
f 26/59/5 25/60/5 29/57/5 30/53/5
f 25/61/2 27/62/2 31/58/2 29/57/2
f 27/63/6 28/64/6 32/54/6 31/58/6
f 34/65/4 35/66/4 39/67/4 38/68/4
f 3/13/1 1/16/1 34/69/1 33/70/1
f 4/2/1 3/13/1 33/70/1 36/3/1
f 1/16/1 2/1/1 35/4/1 34/69/1
f 39/67/1 40/71/1 44/72/1 43/73/1
f 35/74/6 36/75/6 40/71/6 39/67/6
f 33/76/5 34/77/5 38/68/5 37/78/5
f 36/79/2 33/80/2 37/78/2 40/71/2
f 44/81/2 41/82/2 45/83/2 48/84/2
f 37/78/1 38/68/1 42/85/1 41/86/1
f 40/71/1 37/78/1 41/86/1 44/72/1
f 38/68/1 39/67/1 43/73/1 42/85/1
f 46/87/1 47/88/1 48/84/1 45/83/1
f 42/89/4 43/90/4 47/88/4 46/87/4
f 43/91/6 44/92/6 48/84/6 47/88/6
f 41/93/5 42/94/5 46/87/5 45/83/5
