# Blender v2.79 (sub 0) OBJ File: 'untitled.blend'
# www.blender.org
mtllib DrivingSeat.mtl
o Cube_Cube.001
v -1.247465 -1.000000 1.000000
v -1.247465 -0.660962 1.000000
v -1.247465 -1.000000 -1.000000
v -1.247465 -0.660962 -1.000000
v 1.054763 -1.000000 1.000000
v 1.054763 -0.660962 1.000000
v 1.054763 -1.000000 -1.000000
v 1.054763 -0.660962 -1.000000
v -0.980276 -0.660962 0.845993
v -0.980276 -0.660962 -0.845993
v 0.787574 -0.660962 -0.845993
v 0.787574 -0.660962 0.845993
v -0.980276 -0.420026 0.845993
v -0.980276 -0.420026 -0.845993
v 0.787574 -0.420026 -0.845993
v 0.787574 -0.420026 0.845993
v -0.345941 -0.420026 0.259680
v -0.345941 -0.420026 -0.259680
v 0.345941 -0.420026 -0.259680
v 0.345941 -0.420026 0.259680
v -0.345941 -0.083587 0.259680
v -0.345941 -0.083587 -0.259680
v 0.345941 -0.083587 -0.259680
v 0.345941 -0.083587 0.259680
v -0.748223 -0.083587 0.621020
v -0.748223 -0.083587 -0.621020
v 0.564565 -0.083587 -0.621020
v 0.564565 -0.083587 0.621020
v -0.748223 0.209933 0.621020
v -0.748223 0.209933 -0.621020
v 0.564565 0.209933 -0.621020
v 0.564565 0.209933 0.621020
v -0.865143 0.157346 0.561654
v -0.865143 0.157346 -0.561654
v -0.604762 0.157346 -0.561654
v -0.604762 0.157346 0.561654
v -0.865143 1.275571 0.561654
v -0.865143 1.275571 -0.561654
v -0.604762 1.275571 -0.561654
v -0.604762 1.275571 0.561654
v -0.696491 1.501558 0.106981
v -0.773414 1.501558 0.106981
v -0.696491 1.501558 -0.106981
v -0.773414 1.501558 -0.106981
v -0.635396 1.501558 0.344071
v -0.863507 1.501558 0.344071
v -0.635396 1.501558 -0.344071
v -0.863507 1.501558 -0.344071
v -0.635396 1.836589 0.344071
v -0.863507 1.836589 0.344071
v -0.635396 1.836589 -0.344071
v -0.863507 1.836589 -0.344071
v 0.564565 -0.083587 -0.512756
v 0.564565 -0.083587 0.512756
v 0.564565 0.209933 -0.512756
v 0.564565 0.209933 0.512756
v 0.683368 -0.083587 -0.512756
v 0.683368 -0.083587 0.512756
v 0.683368 0.209933 -0.512756
v 0.683368 0.209933 0.512756
v -0.865143 1.275571 0.501888
v -0.865143 1.275571 -0.501888
v -0.604762 1.275571 -0.501888
v -0.604762 1.275571 0.501888
v -0.691152 1.435434 0.108868
v -0.778753 1.435434 0.108868
v -0.691152 1.435434 -0.108868
v -0.778753 1.435434 -0.108868
v -0.865143 1.435434 0.501888
v -0.865143 1.435434 -0.501888
v -0.604762 1.435434 -0.501888
v -0.604762 1.435434 0.501888
vt 0.835938 0.457031
vt 0.835938 0.488281
vt 0.652344 0.488281
vt 0.652344 0.457031
vt 0.621094 0.488281
vt 0.652344 0.699219
vt 0.621094 0.699219
vt 0.652344 0.246094
vt 0.652344 0.214844
vt 0.835938 0.214844
vt 0.835938 0.246094
vt 0.867188 0.699219
vt 0.835938 0.699219
vt 0.867188 0.488281
vt 0.820312 0.511719
vt 0.667969 0.511719
vt 0.488281 0.781250
vt 0.652344 0.781250
vt 0.652344 0.800781
vt 0.488281 0.800781
vt 0.820312 0.675781
vt 0.667969 0.675781
vt 0.652344 0.957031
vt 0.613281 0.902344
vt 0.613281 0.855469
vt 0.652344 0.976562
vt 0.488281 0.976562
vt 0.488281 0.957031
vt 0.671875 0.800781
vt 0.671875 0.957031
vt 0.468750 0.957031
vt 0.468750 0.800781
vt 0.320312 0.988281
vt 0.253906 0.988281
vt 0.253906 0.949219
vt 0.320312 0.949219
vt 0.546875 0.855469
vt 0.546875 0.902344
vt 0.171875 0.988281
vt 0.171875 0.949219
vt 0.402344 0.988281
vt 0.402344 0.949219
vt 0.105469 0.988281
vt 0.105469 0.949219
vt 0.492188 0.351562
vt 0.492188 0.289062
vt 0.523438 0.265625
vt 0.523438 0.390625
vt 0.441406 0.289062
vt 0.441406 0.351562
vt 0.406250 0.390625
vt 0.406250 0.265625
vt 0.523438 0.417969
vt 0.406250 0.417969
vt 0.023438 0.390625
vt 0.144531 0.390625
vt 0.144531 0.417969
vt 0.023438 0.417969
vt 0.285156 0.390625
vt 0.285156 0.417969
vt 0.488281 0.636719
vt 0.488281 0.660156
vt 0.382812 0.660156
vt 0.382812 0.636719
vt 0.023438 0.988281
vt 0.011719 0.988281
vt 0.011719 0.980469
vt 0.023438 0.980469
vt 0.136719 0.660156
vt 0.031250 0.660156
vt 0.031250 0.636719
vt 0.136719 0.636719
vt 0.523438 0.542969
vt 0.406250 0.542969
vt 0.031250 0.769531
vt 0.136719 0.769531
vt 0.117188 0.769531
vt 0.050781 0.769531
vt 0.031250 0.527344
vt 0.136719 0.527344
vt 0.242188 0.636719
vt 0.242188 0.660156
vt 0.050781 0.527344
vt 0.117188 0.527344
vt 0.128906 0.890625
vt 0.097656 0.882812
vt 0.097656 0.871094
vt 0.128906 0.859375
vt 0.074219 0.871094
vt 0.042969 0.859375
vt 0.089844 0.980469
vt 0.089844 0.988281
vt 0.062500 0.988281
vt 0.062500 0.980469
vt 0.167969 0.859375
vt 0.167969 0.890625
vt 0.074219 0.882812
vt 0.042969 0.890625
vt 0.050781 0.988281
vt 0.050781 0.980469
vt 0.253906 0.859375
vt 0.253906 0.890625
vt 0.003906 0.890625
vt 0.003906 0.859375
vt 0.042969 0.820312
vt 0.128906 0.820312
vt 0.128906 0.929688
vt 0.042969 0.929688
vt 0.507812 0.542969
vt 0.417969 0.542969
vt 0.156250 0.417969
vt 0.156250 0.390625
vt 0.167969 0.390625
vt 0.167969 0.417969
vt 0.417969 0.265625
vt 0.511719 0.265625
vt 0.273438 0.417969
vt 0.273438 0.390625
vt 0.261719 0.390625
vt 0.261719 0.417969
vt 0.507812 0.558594
vt 0.417969 0.558594
vt 0.417969 0.250000
vt 0.511719 0.250000
vt 0.378906 0.636719
vt 0.378906 0.660156
vt 0.359375 0.660156
vt 0.359375 0.636719
vt 0.250000 0.660156
vt 0.250000 0.636719
vt 0.265625 0.636719
vt 0.265625 0.660156
vt 0.300781 0.652344
vt 0.324219 0.652344
vt 0.324219 0.644531
vt 0.300781 0.644531
vt 0.050781 0.511719
vt 0.117188 0.511719
vt 0.117188 0.785156
vt 0.050781 0.785156
vn -1.0000 0.0000 0.0000
vn 0.0000 0.0000 -1.0000
vn 1.0000 0.0000 0.0000
vn 0.0000 0.0000 1.0000
vn 0.0000 -1.0000 0.0000
vn 0.0000 1.0000 0.0000
vn 0.0000 0.0285 0.9996
vn 0.9968 0.0805 0.0000
vn -0.9968 0.0805 0.0000
vn 0.0000 0.0285 -0.9996
usemtl None
s off
f 1/1/1 2/2/1 4/3/1 3/4/1
f 3/5/2 4/3/2 8/6/2 7/7/2
f 7/8/3 8/9/3 6/10/3 5/11/3
f 5/12/4 6/13/4 2/2/4 1/14/4
f 3/4/5 7/8/5 5/11/5 1/1/5
f 4/3/6 2/2/6 9/15/6 10/16/6
f 9/17/4 12/18/4 16/19/4 13/20/4
f 2/2/6 6/13/6 12/21/6 9/15/6
f 8/6/6 4/3/6 10/16/6 11/22/6
f 6/13/6 8/6/6 11/22/6 12/21/6
f 16/19/6 15/23/6 19/24/6 20/25/6
f 11/26/2 10/27/2 14/28/2 15/23/2
f 12/29/3 11/30/3 15/23/3 16/19/3
f 10/31/1 9/32/1 13/20/1 14/28/1
f 18/33/1 17/34/1 21/35/1 22/36/1
f 14/28/6 13/20/6 17/37/6 18/38/6
f 13/20/6 16/19/6 20/25/6 17/37/6
f 15/23/6 14/28/6 18/38/6 19/24/6
f 17/34/4 20/39/4 24/40/4 21/35/4
f 19/41/2 18/33/2 22/36/2 23/42/2
f 20/39/3 19/43/3 23/44/3 24/40/3
f 21/45/5 24/46/5 28/47/5 25/48/5
f 23/49/5 22/50/5 26/51/5 27/52/5
f 24/46/5 23/49/5 27/52/5 28/47/5
f 22/50/5 21/45/5 25/48/5 26/51/5
f 26/51/1 25/48/1 29/53/1 30/54/1
f 25/55/4 28/56/4 32/57/4 29/58/4
f 27/59/2 26/51/2 30/54/2 31/60/2
f 35/61/2 34/62/2 38/63/2 39/64/2
f 66/65/7 65/66/7 41/67/7 42/68/7
f 33/69/5 34/70/5 35/71/5 36/72/5
f 29/53/6 32/73/6 31/74/6 30/54/6
f 38/75/5 37/76/5 61/77/5 62/78/5
f 36/72/3 35/71/3 39/79/3 40/80/3
f 34/70/1 33/69/1 37/76/1 38/75/1
f 33/69/4 36/72/4 40/81/4 37/82/4
f 40/80/5 39/79/5 63/83/5 64/84/5
f 47/85/5 43/86/5 44/87/5 48/88/5
f 44/87/5 42/89/5 46/90/5 48/88/5
f 41/91/8 65/92/8 67/93/8 43/94/8
f 47/85/2 48/88/2 52/95/2 51/96/2
f 41/97/5 43/86/5 47/85/5 45/98/5
f 68/99/9 66/65/9 42/68/9 44/100/9
f 42/89/5 41/97/5 45/98/5 46/90/5
f 50/101/6 49/102/6 51/96/6 52/95/6
f 46/90/4 45/98/4 49/103/4 50/104/4
f 48/88/1 46/90/1 50/105/1 52/106/1
f 45/98/3 47/85/3 51/107/3 49/108/3
f 31/74/4 32/73/4 56/109/4 55/110/4
f 56/111/4 54/112/4 58/113/4 60/114/4
f 28/47/3 27/52/3 53/115/3 54/116/3
f 32/57/3 28/56/3 54/112/3 56/111/3
f 27/59/3 31/60/3 55/117/3 53/118/3
f 58/113/3 57/119/3 59/120/3 60/114/3
f 55/110/6 56/109/6 60/121/6 59/122/6
f 53/118/2 55/117/2 59/120/2 57/119/2
f 54/116/5 53/115/5 57/123/5 58/124/5
f 63/125/2 62/126/2 70/127/2 71/128/2
f 61/129/4 64/130/4 72/131/4 69/132/4
f 37/82/6 40/81/6 64/130/6 61/129/6
f 39/64/6 38/63/6 62/126/6 63/125/6
f 68/99/10 44/100/10 43/94/10 67/93/10
f 70/127/6 69/132/6 66/133/6 68/134/6
f 72/131/6 71/128/6 67/135/6 65/136/6
f 69/132/6 72/131/6 65/136/6 66/133/6
f 71/128/6 70/127/6 68/134/6 67/135/6
f 64/84/3 63/83/3 71/137/3 72/138/3
f 62/78/1 61/77/1 69/139/1 70/140/1
