# Blender v2.79 (sub 0) OBJ File: 'untitled.blend'
# www.blender.org
mtllib untitled.mtl
o Cube_Cube.002
v -1.000000 -0.200000 1.000000
v -1.000000 0.200000 1.000000
v -1.000000 -0.200000 -1.000000
v -1.000000 0.200000 -1.000000
v 1.000000 -0.200000 1.000000
v 1.000000 0.200000 1.000000
v 1.000000 -0.200000 -1.000000
v 1.000000 0.200000 -1.000000
v 1.002301 0.200000 -0.700000
v 1.002301 -0.200000 -0.700000
v 1.002301 -0.200000 0.700000
v 1.002301 0.200000 0.700000
v 1.202301 0.200000 -0.700000
v 1.202301 -0.200000 -0.700000
v 1.202301 -0.200000 0.700000
v 1.202301 0.200000 0.700000
v -0.700000 0.200000 -1.005768
v -0.700000 -0.200000 -1.005768
v 0.700000 -0.200000 -1.005768
v 0.700000 0.200000 -1.005768
v -0.700000 0.200000 -1.205768
v -0.700000 -0.200000 -1.205768
v 0.700000 -0.200000 -1.205768
v 0.700000 0.200000 -1.205768
v -1.002288 -0.200000 -0.700000
v -1.002288 -0.200000 0.700000
v -1.002288 0.200000 0.700000
v -1.002288 0.200000 -0.700000
v -1.202288 -0.200000 -0.700000
v -1.202288 -0.200000 0.700000
v -1.202288 0.200000 0.700000
v -1.202288 0.200000 -0.700000
v -0.700000 -0.200000 1.000000
v -0.700000 0.200000 1.000000
v 0.700000 0.200000 1.000000
v 0.700000 -0.200000 1.000000
v -0.700000 -0.200000 1.200000
v -0.700000 0.200000 1.200000
v 0.700000 0.200000 1.200000
v 0.700000 -0.200000 1.200000
vt 0.187500 -0.312500
vt 0.187500 -0.125000
vt 0.125000 -0.125000
vt 0.125000 -0.312500
vt 0.125000 0.875000
vt 0.875000 0.875000
vt 0.875000 1.000000
vt 0.125000 1.000000
vt 0.187500 -0.437500
vt 0.187500 -0.312500
vt 0.062500 -0.312500
vt 0.062500 -0.437500
vt 0.875000 0.875000
vt 0.125000 0.875000
vt 0.125000 0.125000
vt 0.875000 0.125000
vt 0.875000 0.875000
vt 0.125000 0.875000
vt 0.125000 0.125000
vt 0.875000 0.125000
vt 1.000000 0.125000
vt 1.000000 0.875000
vt 0.875000 0.875000
vt 0.875000 0.125000
vt 0.750000 -0.125000
vt 0.750000 -0.000000
vt 0.625000 -0.000000
vt 0.625000 -0.125000
vt 0.750000 -0.437500
vt 0.750000 -0.625000
vt 0.875000 -0.625000
vt 0.875000 -0.437500
vt 0.500000 -0.125000
vt 0.500000 -0.000000
vt -0.000000 -0.000000
vt -0.000000 -0.125000
vt 0.937500 -0.625000
vt 0.937500 -0.437500
vt 0.125000 0.125000
vt 0.125000 0.875000
vt 0.000000 0.875000
vt -0.000000 0.125000
vt 0.875000 1.000000
vt 0.125000 1.000000
vt 0.125000 0.875000
vt 0.875000 0.875000
vt 0.312500 -0.312500
vt 0.312500 -0.125000
vt 0.812500 -0.125000
vt 0.812500 -0.000000
vt 0.437500 -0.125000
vt 0.437500 -0.312500
vt 0.937500 -0.312500
vt 0.937500 -0.125000
vt 0.937500 -0.000000
vt -0.000000 -0.125000
vt -0.000000 -0.312500
vt 0.312500 -0.437500
vt 0.312500 -0.312500
vt 0.437500 -0.437500
vt 0.437500 -0.312500
vt 0.937500 -0.437500
vt 0.937500 -0.312500
vt 0.125000 0.125000
vt 0.125000 0.875000
vt -0.000000 0.875000
vt 0.000000 0.125000
vt 0.125000 0.875000
vt 0.875000 0.875000
vt 0.875000 1.000000
vt 0.125000 1.000000
vt 1.000000 0.125000
vt 1.000000 0.875000
vt 0.875000 0.875000
vt 0.875000 0.125000
vt -0.000000 -0.312500
vt -0.000000 -0.437500
vt 0.625000 -0.625000
vt 0.625000 -0.437500
vt -0.000000 -0.625000
vt 0.625000 -0.437500
vt 0.625000 -0.625000
vt 0.875000 0.125000
vt 0.125000 0.125000
vt 0.125000 0.000000
vt 0.875000 0.000000
vn -1.0000 0.0000 -0.0076
vn 0.0000 1.0000 0.0000
vn 0.0000 0.0000 1.0000
vn 0.0000 -1.0000 0.0000
vn 1.0000 0.0000 -0.0077
vn 1.0000 0.0000 0.0077
vn 1.0000 0.0000 0.0000
vn 0.0000 0.0000 -1.0000
vn -0.0192 0.0000 -0.9998
vn 0.0192 0.0000 -0.9998
vn -1.0000 0.0000 0.0000
vn -1.0000 0.0000 0.0076
usemtl None
s off
f 4/1/1 3/2/1 25/3/1 28/4/1
f 17/5/2 20/6/2 24/7/2 21/8/2
f 2/9/3 1/10/3 33/11/3 34/12/3
f 3/13/4 7/14/4 5/15/4 1/16/4
f 8/17/2 4/18/2 2/19/2 6/20/2
f 9/21/2 12/22/2 16/23/2 13/24/2
f 7/25/5 8/26/5 9/27/5 10/28/5
f 6/29/6 5/30/6 11/31/6 12/32/6
f 14/33/7 13/34/7 16/35/7 15/36/7
f 10/28/8 9/27/8 13/34/8 14/33/8
f 12/32/3 11/31/3 15/37/3 16/38/3
f 11/39/4 10/40/4 14/41/4 15/42/4
f 19/43/4 18/44/4 22/45/4 23/46/4
f 3/2/9 4/1/9 17/47/9 18/48/9
f 8/26/10 7/25/10 19/49/10 20/50/10
f 22/51/8 21/52/8 24/53/8 23/54/8
f 18/48/11 17/47/11 21/52/11 22/51/11
f 20/50/7 19/49/7 23/54/7 24/55/7
f 28/4/8 25/3/8 29/56/8 32/57/8
f 1/10/12 2/9/12 27/58/12 26/59/12
f 26/59/3 27/58/3 31/60/3 30/61/3
f 30/61/11 31/60/11 32/62/11 29/63/11
f 27/64/2 28/65/2 32/66/2 31/67/2
f 25/68/4 26/69/4 30/70/4 29/71/4
f 33/72/4 36/73/4 40/74/4 37/75/4
f 34/12/11 33/11/11 37/76/11 38/77/11
f 40/78/3 39/79/3 38/77/3 37/80/3
f 5/30/3 6/29/3 35/81/3 36/82/3
f 35/83/2 34/84/2 38/85/2 39/86/2
f 36/82/7 35/81/7 39/79/7 40/78/7
