# Blender v2.79 (sub 0) OBJ File: 'untitled.blend'
# www.blender.org
mtllib ProjectilLauncher.mtl
o Cube_Cube.001
v 0.384257 0.686581 1.729349
v 0.384257 1.000000 1.729349
v 0.384257 1.000000 -1.825462
v 0.384257 0.686581 -1.825462
v -0.384257 1.000000 -1.825462
v -0.384257 0.686581 -1.825462
v -0.384257 1.000000 1.729349
v -0.384257 0.686581 1.729349
v 0.308059 0.686604 -1.553245
v 0.306725 0.686581 1.576849
v -0.354936 0.998910 -1.806965
v -0.354936 0.998910 1.649462
v -0.305362 0.686604 -1.553245
v -0.306696 0.686581 1.576849
v -0.306696 0.449394 1.576849
v -0.305362 0.449417 -1.553245
v 0.306725 0.449394 1.576849
v 0.178498 0.449399 1.254245
v -0.177911 0.449399 1.254245
v 0.308059 0.449417 -1.553245
v -0.354936 1.120832 -1.806965
v -0.354936 1.120832 1.649462
v 0.354936 0.998910 1.649462
v 0.354936 0.998910 -1.806965
v 0.354936 1.120832 -1.806965
v 0.354936 1.120832 1.649462
v 0.091935 1.120832 1.553664
v 0.091935 1.120832 0.894769
v 0.178498 0.109087 1.254237
v -0.177911 0.109087 1.254237
v -0.177135 0.449412 0.677421
v 0.179274 0.449412 0.677421
v -0.177135 0.109101 0.677413
v -0.140368 0.109089 1.234448
v -0.139756 0.109099 0.778880
v 0.179274 0.109101 0.677413
v 0.141119 0.109089 1.234448
v 0.141119 -0.518463 1.234423
v -0.140368 -0.518463 1.234423
v 0.141731 0.109099 0.778880
v 0.141731 -0.518452 0.778855
v -0.139756 -0.518452 0.778855
v -0.091935 1.120832 1.553664
v -0.091935 1.120832 0.894769
v -0.091935 1.215267 0.894769
v -0.091935 1.215267 1.553664
v 0.091935 1.215267 1.553664
v -0.270151 1.215267 1.603888
v 0.270151 1.215267 1.603888
v 0.091935 1.215267 0.894769
v -0.270151 1.215267 -0.027269
v -0.270151 1.738991 -0.027269
v -0.270151 1.738991 1.603888
v 0.270151 1.215267 -0.027269
v 0.270151 1.738991 -0.027269
v 0.270151 1.738991 1.603888
v 0.171853 1.643709 -0.027269
v 0.171853 1.310549 -0.027269
v 0.171853 1.643709 -0.179200
v 0.171853 1.310549 -0.179200
v -0.171853 1.643709 -0.027269
v -0.171853 1.310549 -0.027269
v -0.171853 1.310549 -0.179200
v -0.171853 1.643709 -0.179200
vt 0.515625 0.757812
vt 0.316406 0.757812
vt 0.316406 0.777344
vt 0.515625 0.777344
vt 0.292969 0.777344
vt 0.292969 0.832031
vt 0.316406 0.832031
vt 0.316406 0.851562
vt 0.515625 0.851562
vt 0.515625 0.832031
vt 0.539062 0.832031
vt 0.539062 0.777344
vt 0.039062 0.777344
vt 0.050781 0.781250
vt 0.273438 0.781250
vt 0.511719 0.828125
vt 0.320312 0.828125
vt 0.468750 0.953125
vt 0.468750 0.937500
vt 0.265625 0.937500
vt 0.265625 0.953125
vt 0.273438 0.828125
vt 0.050781 0.828125
vt 0.039062 0.832031
vt 0.285156 0.929688
vt 0.285156 0.906250
vt 0.265625 0.898438
vt 0.265625 0.882812
vt 0.468750 0.898438
vt 0.468750 0.882812
vt 0.250000 0.937500
vt 0.250000 0.898438
vt 0.484375 0.898438
vt 0.484375 0.937500
vt 0.050781 0.664062
vt 0.050781 0.671875
vt 0.273438 0.671875
vt 0.273438 0.664062
vt 0.320312 0.781250
vt 0.511719 0.781250
vt 0.273438 0.718750
vt 0.097656 0.703125
vt 0.054688 0.703125
vt 0.050781 0.718750
vt 0.273438 0.726562
vt 0.050781 0.726562
vt 0.042969 0.718750
vt 0.042969 0.671875
vt 0.281250 0.671875
vt 0.281250 0.718750
vt 0.199219 0.957031
vt 0.199219 0.933594
vt 0.175781 0.933594
vt 0.175781 0.957031
vt 0.324219 0.906250
vt 0.324219 0.929688
vt 0.199219 0.898438
vt 0.195312 0.902344
vt 0.195312 0.929688
vt 0.175781 0.875000
vt 0.175781 0.898438
vt 0.199219 0.875000
vt 0.218750 0.898438
vt 0.218750 0.933594
vt 0.156250 0.933594
vt 0.156250 0.898438
vt 0.023438 0.925781
vt 0.066406 0.925781
vt 0.066406 0.906250
vt 0.023438 0.906250
vt 0.179688 0.929688
vt 0.179688 0.902344
vt 0.093750 0.906250
vt 0.093750 0.925781
vt 0.136719 0.906250
vt 0.136719 0.925781
vt 0.093750 0.968750
vt 0.066406 0.968750
vt 0.066406 0.867188
vt 0.093750 0.867188
vt 0.152344 0.734375
vt 0.152344 0.726562
vt 0.109375 0.726562
vt 0.109375 0.734375
vt 0.054688 0.691406
vt 0.097656 0.691406
vt 0.175781 0.566406
vt 0.179688 0.578125
vt 0.179688 0.539062
vt 0.175781 0.554688
vt 0.097656 0.734375
vt 0.097656 0.726562
vt 0.054688 0.726562
vt 0.054688 0.734375
vt 0.042969 0.726562
vt 0.042969 0.734375
vt 0.214844 0.507812
vt 0.214844 0.539062
vt 0.320312 0.539062
vt 0.320312 0.507812
vt 0.132812 0.554688
vt 0.074219 0.539062
vt 0.074219 0.578125
vt 0.132812 0.566406
vt 0.214844 0.578125
vt 0.320312 0.578125
vt 0.320312 0.609375
vt 0.214844 0.609375
vt 0.070312 0.574219
vt 0.042969 0.574219
vt 0.039062 0.578125
vt 0.082031 0.613281
vt 0.070312 0.613281
vt 0.070312 0.632812
vt 0.082031 0.632812
vt 0.042969 0.542969
vt 0.039062 0.539062
vt 0.070312 0.542969
vt 0.050781 0.613281
vt 0.050781 0.632812
vt 0.070312 0.644531
vt 0.050781 0.644531
vt 0.039062 0.632812
vt 0.039062 0.613281
vt 0.050781 0.601562
vt 0.070312 0.601562
vn 1.0000 0.0000 0.0000
vn 0.0000 0.0000 -1.0000
vn -1.0000 0.0000 0.0000
vn 0.0000 0.0000 1.0000
vn -0.0000 -1.0000 -0.0000
vn -0.0001 -1.0000 -0.0000
vn -0.0000 -1.0000 0.0001
vn 0.0371 0.9993 0.0000
vn -1.0000 0.0000 -0.0004
vn 0.0001 -1.0000 0.0000
vn 1.0000 0.0000 0.0004
vn -0.0371 0.9993 0.0000
vn 0.0000 0.9999 -0.0136
vn 0.0000 0.9983 0.0588
vn 0.0000 1.0000 0.0000
vn 0.0000 -1.0000 -0.0001
vn -1.0000 0.0000 -0.0013
vn 1.0000 -0.0000 0.0013
usemtl None
s 1
f 1/1/1 4/2/1 3/3/1 2/4/1
f 4/5/2 6/6/2 5/7/2 3/3/2
f 6/8/3 8/9/3 7/10/3 5/7/3
f 8/11/4 1/12/4 2/4/4 7/10/4
f 1/13/5 10/14/6 9/15/6 4/5/7
f 7/10/8 12/16/8 11/17/8 5/7/8
f 13/18/9 16/19/9 15/20/9 14/21/9
f 6/6/7 13/22/10 14/23/10 8/24/5
f 8/24/5 14/23/10 10/14/6 1/13/5
f 4/5/7 9/15/6 13/22/10 6/6/7
f 15/20/5 19/25/5 18/26/5 17/27/5
f 10/28/11 17/27/11 20/29/11 9/30/11
f 14/31/4 15/20/4 17/27/4 10/32/4
f 9/33/2 20/29/2 16/19/2 13/34/2
f 12/35/3 22/36/3 21/37/3 11/38/3
f 3/3/12 24/39/12 23/40/12 2/4/12
f 2/4/13 23/40/13 12/16/13 7/10/13
f 5/7/14 11/17/14 24/39/14 3/3/14
f 25/41/15 28/42/15 27/43/15 26/44/15
f 24/45/1 25/41/1 26/44/1 23/46/1
f 23/47/4 26/44/4 22/36/4 12/48/4
f 11/49/2 21/37/2 25/41/2 24/50/2
f 19/51/4 30/52/4 29/53/4 18/54/4
f 20/29/5 32/55/5 31/56/5 16/19/5
f 16/19/5 31/56/5 19/25/5 15/20/5
f 17/27/5 18/26/5 32/55/5 20/29/5
f 33/57/5 35/58/5 34/59/16 30/52/5
f 32/60/2 36/61/2 33/57/2 31/62/2
f 31/63/17 33/57/17 30/52/17 19/64/17
f 18/65/18 29/53/18 36/61/18 32/66/18
f 34/67/4 39/68/4 38/69/4 37/70/4
f 29/53/5 37/71/16 40/72/5 36/61/5
f 30/52/5 34/59/16 37/71/16 29/53/5
f 36/61/5 40/72/5 35/58/5 33/57/5
f 41/73/5 38/69/5 39/68/5 42/74/5
f 40/75/2 41/73/2 42/74/2 35/76/2
f 35/77/17 42/74/17 39/68/17 34/78/17
f 37/79/18 38/69/18 41/73/18 40/80/18
f 43/81/3 46/82/3 45/83/3 44/84/3
f 26/44/15 27/43/15 43/85/15 22/36/15
f 21/37/15 44/86/15 28/42/15 25/41/15
f 22/36/15 43/85/15 44/86/15 21/37/15
f 47/87/5 49/88/5 48/89/5 46/90/5
f 28/91/1 50/92/1 47/93/1 27/94/1
f 27/94/4 47/93/4 46/95/4 43/96/4
f 44/84/2 45/83/2 50/92/2 28/91/2
f 48/97/3 53/98/3 52/99/3 51/100/3
f 45/101/5 51/102/5 54/103/5 50/104/5
f 46/90/5 48/89/5 51/102/5 45/101/5
f 50/104/5 54/103/5 49/88/5 47/87/5
f 52/99/15 53/98/15 56/105/15 55/106/15
f 54/107/1 55/106/1 56/105/1 49/108/1
f 49/88/4 56/105/4 53/98/4 48/89/4
f 54/103/2 58/109/2 57/110/2 55/111/2
f 58/112/1 60/113/1 59/114/1 57/115/1
f 55/111/2 57/110/2 61/116/2 52/117/2
f 51/102/2 62/118/2 58/109/2 54/103/2
f 52/117/2 61/116/2 62/118/2 51/102/2
f 63/119/2 64/120/2 59/114/2 60/113/2
f 57/121/15 59/114/15 64/120/15 61/122/15
f 61/123/3 64/120/3 63/119/3 62/124/3
f 62/125/5 63/119/5 60/113/5 58/126/5
