# Blender v2.79 (sub 0) OBJ File: ''
# www.blender.org
mtllib Button.mtl
o Cube
v 0.500000 -0.183140 -0.500000
v 0.500000 -0.183140 0.500000
v -0.500000 -0.183140 0.500000
v -0.500000 -0.183140 -0.500000
v 0.500000 0.316860 -0.500000
v 0.500000 0.316860 0.500000
v -0.500000 0.316860 0.500000
v -0.500000 0.316860 -0.500000
v 0.413848 0.316860 -0.413847
v 0.413847 0.316860 0.413848
v -0.413848 0.316860 -0.413848
v -0.413848 0.316860 0.413848
v 0.413848 0.351743 -0.413847
v 0.413847 0.351743 0.413848
v -0.413848 0.351743 -0.413848
v -0.413848 0.351743 0.413848
v -0.500000 -0.046944 0.116902
v -0.500000 -0.046944 -0.116903
v -0.500000 0.180665 0.116902
v -0.500000 0.180665 -0.116903
v -0.540464 -0.046944 0.116902
v -0.540464 -0.046944 -0.116903
v -0.540464 0.180665 0.116902
v -0.540464 0.180665 -0.116903
v -0.540464 -0.013941 0.083001
v -0.540464 -0.013941 -0.083002
v -0.540464 0.147662 0.083001
v -0.540464 0.147662 -0.083001
v -0.584456 -0.013941 0.083001
v -0.584456 -0.013941 -0.083002
v -0.584456 0.147662 0.083001
v -0.584456 0.147662 -0.083002
vt 0.031250 0.769531
vt 0.031250 0.687500
vt 0.113281 0.687500
vt 0.113281 0.769531
vt 0.242188 0.769531
vt 0.156250 0.769531
vt 0.164062 0.761719
vt 0.234375 0.761719
vt 0.281250 0.769531
vt 0.242188 0.687500
vt 0.281250 0.687500
vt 0.242188 0.648438
vt 0.156250 0.687500
vt 0.156250 0.648438
vt 0.125000 0.738281
vt 0.144531 0.738281
vt 0.242188 0.808594
vt 0.156250 0.808594
vt 0.031250 0.859375
vt 0.132812 0.859375
vt 0.132812 0.867188
vt 0.031250 0.867188
vt 0.234375 0.695312
vt 0.164062 0.695312
vt 0.132812 0.968750
vt 0.031250 0.968750
vt 0.140625 0.867188
vt 0.140625 0.968750
vt 0.023438 0.968750
vt 0.023438 0.867188
vt 0.132812 0.976562
vt 0.031250 0.976562
vt 0.183594 0.921875
vt 0.222656 0.921875
vt 0.222656 0.929688
vt 0.183594 0.929688
vt 0.125000 0.718750
vt 0.144531 0.718750
vt 0.222656 0.968750
vt 0.214844 0.960938
vt 0.214844 0.937500
vt 0.175781 0.968750
vt 0.175781 0.929688
vt 0.183594 0.968750
vt 0.230469 0.929688
vt 0.230469 0.968750
vt 0.222656 0.976562
vt 0.183594 0.976562
vt 0.191406 0.855469
vt 0.218750 0.855469
vt 0.218750 0.863281
vt 0.191406 0.863281
vt 0.191406 0.960938
vt 0.191406 0.937500
vt 0.191406 0.890625
vt 0.218750 0.890625
vt 0.183594 0.890625
vt 0.183594 0.863281
vt 0.226562 0.863281
vt 0.226562 0.890625
vt 0.218750 0.898438
vt 0.191406 0.898438
vn 0.0000 -1.0000 0.0000
vn 0.0000 1.0000 0.0000
vn 1.0000 0.0000 0.0000
vn -0.0000 -0.0000 1.0000
vn -1.0000 -0.0000 -0.0000
vn 0.0000 0.0000 -1.0000
usemtl Material
s off
f 1/1/1 2/2/1 3/3/1 4/4/1
f 5/5/2 8/6/2 11/7/2 9/8/2
f 1/9/3 5/5/3 6/10/3 2/11/3
f 2/12/4 6/10/4 7/13/4 3/14/4
f 8/6/5 4/4/5 18/15/5 20/16/5
f 5/5/6 1/17/6 4/18/6 8/6/6
f 12/19/4 10/20/4 14/21/4 16/22/4
f 7/13/2 6/10/2 10/23/2 12/24/2
f 6/10/2 5/5/2 9/8/2 10/23/2
f 8/6/2 7/13/2 12/24/2 11/7/2
f 13/25/2 15/26/2 16/22/2 14/21/2
f 10/27/3 9/28/3 13/25/3 14/21/3
f 11/29/5 12/30/5 16/22/5 15/26/5
f 9/31/6 11/32/6 15/26/6 13/25/6
f 19/33/2 20/34/2 24/35/2 23/36/2
f 4/4/5 3/3/5 17/37/5 18/15/5
f 3/3/5 7/13/5 19/38/5 17/37/5
f 7/13/5 8/6/5 20/16/5 19/38/5
f 24/35/5 22/39/5 26/40/5 28/41/5
f 17/42/4 19/43/4 23/36/4 21/44/4
f 20/45/6 18/46/6 22/39/6 24/35/6
f 18/47/1 17/48/1 21/44/1 22/39/1
f 27/49/2 28/50/2 32/51/2 31/52/2
f 22/39/5 21/44/5 25/53/5 26/40/5
f 23/36/5 24/35/5 28/41/5 27/54/5
f 21/44/5 23/36/5 27/54/5 25/53/5
f 29/55/5 31/52/5 32/51/5 30/56/5
f 25/57/4 27/58/4 31/52/4 29/55/4
f 28/59/6 26/60/6 30/56/6 32/51/6
f 26/61/1 25/62/1 29/55/1 30/56/1
