# Blender v2.79 (sub 0) OBJ File: 'untitled.blend'
# www.blender.org
mtllib VehiculeBaseArm.mtl
o Cube
v 0.278766 -1.241379 -0.098332
v 0.278766 -1.241379 0.098332
v -0.278766 -1.241379 0.098332
v -0.278766 -1.241379 -0.098332
v 0.278766 1.241379 -0.098332
v 0.278766 1.241379 0.098332
v -0.278766 1.241379 0.098332
v -0.278766 1.241379 -0.098332
v 0.227796 0.974419 -0.098332
v -0.227796 0.974419 -0.098332
v 0.227796 1.243999 -0.098332
v -0.227796 1.243999 -0.098332
v 0.227796 0.974419 -1.153760
v -0.227796 0.974419 -1.153760
v 0.227796 1.243999 -1.153760
v -0.227796 1.243999 -1.153760
v 0.179167 1.003194 -1.153760
v -0.179167 1.003194 -1.153760
v 0.179167 1.215225 -1.153760
v -0.179167 1.215225 -1.153760
v 0.179167 1.003194 -1.439073
v -0.179167 1.003194 -1.439073
v 0.179167 1.215225 -1.439073
v -0.179167 1.215225 -1.439073
v 0.153269 1.018518 -1.439073
v -0.153269 1.018518 -1.439073
v 0.153269 1.199901 -1.439073
v -0.153269 1.199901 -1.439073
v 0.153269 1.018518 -1.655240
v -0.153269 1.018518 -1.655240
v 0.153269 1.199901 -1.655240
v -0.153269 1.199901 -1.655240
v 0.256764 -1.240819 0.098332
v -0.256764 -1.240819 0.098332
v 0.256764 1.017707 0.098332
v -0.256765 1.017707 0.098332
v 0.256764 -1.240819 0.154926
v -0.256764 -1.240819 0.154926
v 0.256764 1.017707 0.154926
v -0.256765 1.017707 0.154926
vt 0.394531 0.679688
vt 0.394531 0.660156
vt 0.453125 0.660156
vt 0.453125 0.679688
vt 0.328125 0.984375
vt 0.261719 0.984375
vt 0.261719 0.960938
vt 0.328125 0.960938
vt 0.355469 0.660156
vt 0.355469 0.960938
vt 0.328125 0.660156
vt 0.261719 0.660156
vt 0.234375 0.960938
vt 0.234375 0.660156
vt 0.285156 0.601562
vt 0.285156 0.632812
vt 0.171875 0.632812
vt 0.171875 0.601562
vt 0.453125 0.941406
vt 0.445312 0.941406
vt 0.445312 0.914062
vt 0.402344 0.914062
vt 0.394531 0.941406
vt 0.402344 0.941406
vt 0.167969 0.628906
vt 0.167969 0.605469
vt 0.125000 0.492188
vt 0.171875 0.492188
vt 0.125000 0.601562
vt 0.171875 0.742188
vt 0.125000 0.742188
vt 0.125000 0.632812
vt 0.011719 0.632812
vt 0.011719 0.601562
vt 0.132812 0.902344
vt 0.171875 0.902344
vt 0.171875 0.933594
vt 0.132812 0.933594
vt 0.128906 0.605469
vt 0.128906 0.628906
vt 0.132812 0.957031
vt 0.136719 0.937500
vt 0.136719 0.953125
vt 0.199219 0.933594
vt 0.199219 0.957031
vt 0.171875 0.957031
vt 0.101562 0.957031
vt 0.101562 0.933594
vt 0.171875 0.984375
vt 0.132812 0.984375
vt 0.160156 0.890625
vt 0.125000 0.890625
vt 0.125000 0.867188
vt 0.160156 0.867188
vt 0.167969 0.953125
vt 0.167969 0.937500
vt 0.160156 0.847656
vt 0.125000 0.847656
vt 0.125000 0.824219
vt 0.160156 0.824219
vt 0.183594 0.847656
vt 0.183594 0.867188
vt 0.101562 0.867188
vt 0.101562 0.847656
vt 0.011719 0.984375
vt 0.011719 0.750000
vt 0.019531 0.750000
vt 0.019531 0.984375
vt 0.265625 0.933594
vt 0.324219 0.933594
vt 0.265625 0.660156
vt 0.324219 0.660156
vt 0.074219 0.750000
vt 0.074219 0.984375
vt 0.019531 0.742188
vt 0.074219 0.742188
vt 0.074219 0.992188
vt 0.019531 0.992188
vt 0.082031 0.750000
vt 0.082031 0.984375
vn 0.0000 -1.0000 0.0000
vn 0.0000 1.0000 0.0000
vn 1.0000 0.0000 0.0000
vn -1.0000 -0.0000 -0.0000
vn -0.0000 0.0000 -1.0000
vn -0.0000 -0.0000 1.0000
usemtl Material
s off
f 1/1/1 2/2/1 3/3/1 4/4/1
f 5/5/2 8/6/2 7/7/2 6/8/2
f 1/9/3 5/10/3 6/8/3 2/11/3
f 3/12/4 7/7/4 8/13/4 4/14/4
f 10/15/4 12/16/4 16/17/4 14/18/4
f 4/4/5 8/19/5 12/20/5 10/21/5
f 1/1/5 4/4/5 10/21/5 9/22/5
f 5/23/5 1/1/5 9/22/5 11/24/5
f 14/18/5 16/17/5 20/25/5 18/26/5
f 9/27/1 10/28/1 14/18/1 13/29/1
f 12/30/2 11/31/2 15/32/2 16/17/2
f 11/33/3 9/34/3 13/29/3 15/32/3
f 20/35/2 19/36/2 23/37/2 24/38/2
f 13/29/5 14/18/5 18/26/5 17/39/5
f 16/17/5 15/32/5 19/40/5 20/25/5
f 15/32/5 13/29/5 17/39/5 19/40/5
f 22/41/5 24/38/5 28/42/5 26/43/5
f 19/44/3 17/45/3 21/46/3 23/37/3
f 18/47/4 20/48/4 24/38/4 22/41/4
f 17/49/1 18/50/1 22/41/1 21/46/1
f 25/51/1 26/52/1 30/53/1 29/54/1
f 21/46/5 22/41/5 26/43/5 25/55/5
f 24/38/5 23/37/5 27/56/5 28/42/5
f 23/37/5 21/46/5 25/55/5 27/56/5
f 31/57/5 29/54/5 30/53/5 32/58/5
f 28/59/2 27/60/2 31/57/2 32/58/2
f 27/61/3 25/62/3 29/54/3 31/57/3
f 26/63/4 28/64/4 32/58/4 30/53/4
f 36/65/4 34/66/4 38/67/4 40/68/4
f 6/8/6 7/7/6 36/69/6 35/70/6
f 7/7/6 3/12/6 34/71/6 36/69/6
f 2/11/6 6/8/6 35/70/6 33/72/6
f 37/73/6 39/74/6 40/68/6 38/67/6
f 34/75/1 33/76/1 37/73/1 38/67/1
f 35/77/2 36/78/2 40/68/2 39/74/2
f 33/79/3 35/80/3 39/74/3 37/73/3
