# Blender v2.79 (sub 0) OBJ File: 'untitled.blend'
# www.blender.org
mtllib DrivingWheelSide.mtl
o Cube_Cube.004
v -0.108166 -0.522948 0.059685
v -0.108166 0.522948 0.059685
v -0.108166 -0.522948 -0.136946
v -0.108166 0.522948 -0.136946
v 0.108166 -0.522948 0.059685
v 0.108166 0.522948 0.059685
v 0.108166 -0.522948 -0.136946
v 0.108166 0.522948 -0.136946
v -0.108166 0.722948 0.059685
v -0.108166 0.722948 -0.136946
v 0.108166 0.722948 -0.136946
v 0.108166 0.722948 0.059685
v -0.108166 -0.722948 -0.136946
v -0.108166 -0.722948 0.059685
v 0.108166 -0.722948 -0.136946
v 0.108166 -0.722948 0.059685
v -0.108166 0.522948 -0.336946
v 0.108166 0.522948 -0.336946
v -0.108166 0.722948 -0.336946
v 0.108166 0.722948 -0.336946
v 0.108166 -0.522948 -0.336946
v -0.108166 -0.522948 -0.336946
v 0.108166 -0.722948 -0.336946
v -0.108166 -0.722948 -0.336946
v -0.108166 0.922948 -0.136946
v 0.108166 0.922948 -0.136946
v -0.108166 0.922948 -0.336946
v 0.108166 0.922948 -0.336946
v 0.108166 -0.922948 -0.136946
v -0.108166 -0.922948 -0.136946
v 0.108166 -0.922948 -0.336946
v -0.108166 -0.922948 -0.336946
v 0.108166 -0.722948 -0.536946
v -0.108166 -0.722948 -0.536946
v 0.108166 -0.922948 -0.536946
v -0.108166 -0.922948 -0.536946
v -0.108166 0.722948 -0.486946
v 0.108166 0.722948 -0.486946
v -0.108166 0.922948 -0.486946
v 0.108166 0.922948 -0.486946
vt 0.101562 0.070312
vt 0.101562 0.250000
vt 0.070312 0.250000
vt 0.070312 0.070312
vt 0.101562 0.726562
vt 0.101562 0.546875
vt 0.140625 0.546875
vt 0.140625 0.726562
vt 0.171875 0.070312
vt 0.171875 0.250000
vt 0.140625 0.250000
vt 0.140625 0.070312
vt 0.140625 0.757812
vt 0.101562 0.757812
vt 0.101562 0.281250
vt 0.070312 0.281250
vt 0.140625 0.320312
vt 0.101562 0.320312
vt 0.140625 0.281250
vt 0.031250 0.281250
vt 0.031250 0.250000
vt 0.171875 0.281250
vt 0.101562 0.968750
vt 0.140625 0.968750
vt 0.140625 1.000000
vt 0.101562 1.000000
vt 0.070312 0.031250
vt 0.101562 0.031250
vt 0.140625 0.031250
vt 0.171875 0.031250
vt 0.140625 0.507812
vt 0.101562 0.507812
vt 0.101562 0.476562
vt 0.140625 0.476562
vt 0.140625 0.351562
vt 0.101562 0.351562
vt 0.210938 0.250000
vt 0.210938 0.281250
vt 0.140625 0.796875
vt 0.101562 0.796875
vt 0.210938 0.031250
vt 0.210938 0.070312
vt 0.031250 0.070312
vt 0.031250 0.031250
vt 0.140625 0.828125
vt 0.101562 0.828125
vt 0.140625 0.390625
vt 0.101562 0.390625
vt 0.031250 0.320312
vt 0.007812 0.320312
vt 0.007812 0.281250
vt 0.210938 0.320312
vt 0.171875 0.320312
vt 0.070312 0.320312
vt 0.140625 0.929688
vt 0.101562 0.929688
vt 0.101562 0.898438
vt 0.140625 0.898438
vt 0.171875 0.000000
vt 0.210938 0.000000
vt 0.031250 0.000000
vt 0.070312 0.000000
vt 0.140625 0.859375
vt 0.101562 0.859375
vt 0.000000 0.031250
vt 0.000000 0.000000
vt 0.242188 0.000000
vt 0.242188 0.031250
vt 0.140625 0.445312
vt 0.101562 0.445312
vt 0.101562 0.414062
vt 0.140625 0.414062
vt 0.234375 0.281250
vt 0.234375 0.320312
vn -1.0000 0.0000 0.0000
vn 0.0000 0.0000 -1.0000
vn 1.0000 0.0000 0.0000
vn 0.0000 0.0000 1.0000
vn 0.0000 1.0000 0.0000
vn 0.0000 -1.0000 0.0000
usemtl None
s off
f 1/1/1 2/2/1 4/3/1 3/4/1
f 3/5/2 4/6/2 8/7/2 7/8/2
f 7/9/3 8/10/3 6/11/3 5/12/3
f 5/12/4 6/11/4 2/2/4 1/1/4
f 3/5/5 7/8/5 21/13/5 22/14/5
f 4/3/1 2/2/1 9/15/1 10/16/1
f 11/17/5 10/18/5 9/15/5 12/19/5
f 2/2/4 6/11/4 12/19/4 9/15/4
f 4/3/1 10/16/1 19/20/1 17/21/1
f 6/11/3 8/10/3 11/22/3 12/19/3
f 13/23/6 15/24/6 16/25/6 14/26/6
f 1/1/1 3/4/1 13/27/1 14/28/1
f 7/9/3 5/12/3 16/29/3 15/30/3
f 5/12/4 1/1/4 14/28/4 16/29/4
f 18/31/2 17/32/2 19/33/2 20/34/2
f 10/18/4 11/17/4 26/35/4 25/36/4
f 8/7/6 4/6/6 17/32/6 18/31/6
f 11/22/3 8/10/3 18/37/3 20/38/3
f 22/14/2 21/13/2 23/39/2 24/40/2
f 7/9/3 15/30/3 23/41/3 21/42/3
f 13/27/1 3/4/1 22/43/1 24/44/1
f 24/40/5 23/39/5 33/45/5 34/46/5
f 25/36/5 26/35/5 28/47/5 27/48/5
f 19/20/1 27/49/1 39/50/1 37/51/1
f 11/22/3 20/38/3 28/52/3 26/53/3
f 19/20/1 10/16/1 25/54/1 27/49/1
f 29/55/6 30/56/6 32/57/6 31/58/6
f 23/41/3 15/30/3 29/59/3 31/60/3
f 15/24/4 13/23/4 30/56/4 29/55/4
f 13/27/1 24/44/1 32/61/1 30/62/1
f 34/46/2 33/45/2 35/63/2 36/64/2
f 32/61/1 24/44/1 34/65/1 36/66/1
f 31/58/6 32/57/6 36/64/6 35/63/6
f 23/41/3 31/60/3 35/67/3 33/68/3
f 38/69/2 37/70/2 39/71/2 40/72/2
f 20/34/6 19/33/6 37/70/6 38/69/6
f 28/52/3 20/38/3 38/73/3 40/74/3
f 27/48/5 28/47/5 40/72/5 39/71/5
