# Blender v2.79 (sub 0) OBJ File: 'untitled.blend'
# www.blender.org
mtllib DrivingWheelStand.mtl
o Cube_Cube.002
v -0.465965 -0.204407 0.781730
v -0.465965 0.204407 0.781730
v -0.465965 -0.204407 -0.781730
v -0.465965 0.204407 -0.781730
v 0.465965 -0.204407 0.781730
v 0.465965 0.204407 0.781730
v 0.465965 -0.204407 -0.781730
v 0.465965 0.204407 -0.781730
v -0.324066 0.204407 0.379812
v -0.324066 0.204407 -0.153356
v 0.324066 0.204407 -0.153356
v 0.324066 0.204407 0.379812
v -0.324066 4.017219 0.379812
v -0.324066 4.017219 -0.153356
v 0.324066 4.017219 -0.153356
v 0.324066 4.017219 0.379812
v -0.387162 4.017219 0.573237
v -0.387162 4.017219 -0.701931
v 0.387162 4.017219 -0.701931
v 0.387162 4.017219 0.573237
v -0.387162 4.646399 0.573237
v -0.387162 4.646399 -0.701931
v 0.387162 4.646399 -0.701931
v 0.387162 4.646399 0.573237
v -0.194719 4.173589 -0.701931
v 0.194719 4.173589 -0.701931
v -0.194719 4.490029 -0.701931
v 0.194719 4.490029 -0.701931
v -0.194719 4.173589 -0.901607
v 0.194719 4.173589 -0.901607
v -0.194719 4.490029 -0.901607
v 0.194719 4.490029 -0.901607
vt 0.386719 0.687500
vt 0.386719 0.664062
vt 0.480469 0.664062
vt 0.480469 0.687500
vt 0.246094 0.687500
vt 0.269531 0.687500
vt 0.269531 0.746094
vt 0.246094 0.746094
vt 0.480469 0.746094
vt 0.480469 0.769531
vt 0.386719 0.769531
vt 0.386719 0.746094
vt 0.363281 0.746094
vt 0.363281 0.687500
vt 0.308594 0.734375
vt 0.339844 0.734375
vt 0.128906 0.523438
vt 0.164062 0.523438
vt 0.164062 0.750000
vt 0.128906 0.750000
vt 0.339844 0.699219
vt 0.308594 0.699219
vt 0.105469 0.917969
vt 0.105469 0.878906
vt 0.136719 0.875000
vt 0.136719 0.921875
vt 0.058594 0.523438
vt 0.093750 0.523438
vt 0.093750 0.750000
vt 0.058594 0.750000
vt 0.199219 0.523438
vt 0.199219 0.750000
vt 0.062500 0.921875
vt 0.136719 0.960938
vt 0.062500 0.960938
vt 0.074219 0.917969
vt 0.074219 0.878906
vt 0.062500 0.875000
vt 0.175781 0.921875
vt 0.175781 0.875000
vt 0.250000 0.875000
vt 0.250000 0.921875
vt 0.062500 0.839844
vt 0.136719 0.839844
vt 0.285156 0.875000
vt 0.285156 0.921875
vt 0.167969 0.886719
vt 0.144531 0.886719
vt 0.308594 0.843750
vt 0.281250 0.843750
vt 0.281250 0.828125
vt 0.308594 0.828125
vt 0.167969 0.910156
vt 0.144531 0.910156
vt 0.281250 0.796875
vt 0.308594 0.796875
vt 0.265625 0.828125
vt 0.265625 0.796875
vt 0.281250 0.781250
vt 0.308594 0.781250
vt 0.324219 0.796875
vt 0.324219 0.828125
vn -1.0000 0.0000 0.0000
vn 0.0000 0.0000 -1.0000
vn 1.0000 0.0000 0.0000
vn 0.0000 0.0000 1.0000
vn 0.0000 -1.0000 0.0000
vn 0.0000 1.0000 0.0000
usemtl None
s off
f 1/1/1 2/2/1 4/3/1 3/4/1
f 3/5/2 4/6/2 8/7/2 7/8/2
f 7/9/3 8/10/3 6/11/3 5/12/3
f 5/12/4 6/13/4 2/14/4 1/1/4
f 3/4/5 7/9/5 5/12/5 1/1/5
f 6/13/6 8/7/6 11/15/6 12/16/6
f 9/17/4 12/18/4 16/19/4 13/20/4
f 4/6/6 2/14/6 9/21/6 10/22/6
f 2/14/6 6/13/6 12/16/6 9/21/6
f 8/7/6 4/6/6 10/22/6 11/15/6
f 15/23/5 14/24/5 18/25/5 19/26/5
f 11/27/2 10/28/2 14/29/2 15/30/2
f 12/18/3 11/31/3 15/32/3 16/19/3
f 10/28/1 9/17/1 13/20/1 14/29/1
f 20/33/3 19/26/3 23/34/3 24/35/3
f 16/36/5 15/23/5 19/26/5 20/33/5
f 14/24/5 13/37/5 17/38/5 18/25/5
f 13/37/5 16/36/5 20/33/5 17/38/5
f 23/39/6 22/40/6 21/41/6 24/42/6
f 18/25/1 17/38/1 21/43/1 22/44/1
f 17/45/4 20/46/4 24/42/4 21/41/4
f 18/25/2 22/40/2 27/47/2 25/48/2
f 28/49/3 26/50/3 30/51/3 32/52/3
f 22/40/2 23/39/2 28/53/2 27/47/2
f 19/26/2 18/25/2 25/48/2 26/54/2
f 23/39/2 19/26/2 26/54/2 28/53/2
f 30/51/2 29/55/2 31/56/2 32/52/2
f 26/57/5 25/58/5 29/55/5 30/51/5
f 25/59/1 27/60/1 31/56/1 29/55/1
f 27/61/6 28/62/6 32/52/6 31/56/6
