# Blender v2.79 (sub 0) OBJ File: 'untitled.blend'
# www.blender.org
mtllib SolarPanel.mtl
o Cube_Cube.006
v -1.000000 -0.374370 0.706993
v -1.000000 0.374370 0.706993
v -1.000000 -0.374370 -0.706993
v -1.000000 0.374370 -0.706993
v 1.000000 -0.374370 0.706993
v 1.000000 0.374370 0.706993
v 1.000000 -0.374370 -0.706993
v 1.000000 0.374370 -0.706993
v -0.562632 0.374370 0.397777
v -0.562632 0.374370 -0.397777
v 0.562632 0.374370 -0.397777
v 0.562632 0.374370 0.397777
v -0.562632 7.136519 0.397777
v -0.562632 7.136519 -0.397777
v 0.562632 7.413139 -0.397777
v 0.562632 7.413139 0.397777
v -3.692116 5.076848 6.085805
v -3.692116 5.076848 -6.085805
v 3.867168 9.246014 -6.085805
v 3.867168 9.246014 6.085805
v -3.867168 5.394241 6.085805
v -3.867168 5.394241 -6.085805
v 3.692116 9.563406 -6.085805
v 3.692116 9.563406 6.085805
v 1.000000 0.233541 -0.218911
v 1.000000 -0.233541 -0.218911
v 1.000000 -0.233541 0.218911
v 1.000000 0.233541 0.218911
v 1.121382 0.233541 -0.218911
v 1.121382 -0.233541 -0.218911
v 1.121382 -0.233541 0.218911
v 1.121382 0.233541 0.218911
v 1.121382 0.146190 -0.137033
v 1.121382 -0.146190 -0.137033
v 1.121382 -0.146190 0.137033
v 1.121382 0.146190 0.137033
v 1.180856 0.146190 -0.137033
v 1.180856 -0.146190 -0.137033
v 1.180856 -0.146190 0.137033
v 1.180856 0.146190 0.137033
vt 0.894531 0.289062
vt 0.875000 0.289062
vt 0.875000 0.250000
vt 0.894531 0.250000
vt 0.894531 0.230469
vt 0.949219 0.230469
vt 0.949219 0.250000
vt 0.968750 0.289062
vt 0.949219 0.289062
vt 0.953125 0.277344
vt 0.964844 0.277344
vt 0.949219 0.308594
vt 0.894531 0.308594
vt 0.820312 0.289062
vt 0.839844 0.277344
vt 0.859375 0.277344
vt 0.910156 0.019531
vt 0.929688 0.019531
vt 0.929688 0.207031
vt 0.910156 0.207031
vt 0.820312 0.250000
vt 0.859375 0.261719
vt 0.839844 0.261719
vt 0.960938 0.019531
vt 0.980469 0.019531
vt 0.980469 0.203125
vt 0.960938 0.203125
vt 0.878906 0.019531
vt 0.878906 0.203125
vt 0.820312 0.101562
vt 0.710938 0.101562
vt 0.710938 0.027344
vt 0.820312 0.027344
vt 0.820312 0.105469
vt 0.820312 0.179688
vt 0.710938 0.179688
vt 0.710938 0.105469
vt 0.707031 0.101562
vt 0.707031 0.027344
vt 0.824219 0.027344
vt 0.824219 0.101562
vt 0.710938 0.023438
vt 0.820312 0.023438
vt 0.800781 0.238281
vt 0.785156 0.238281
vt 0.785156 0.230469
vt 0.800781 0.230469
vt 0.953125 0.265625
vt 0.968750 0.250000
vt 0.964844 0.265625
vt 0.785156 0.214844
vt 0.789062 0.218750
vt 0.789062 0.226562
vt 0.808594 0.214844
vt 0.808594 0.230469
vt 0.800781 0.214844
vt 0.777344 0.230469
vt 0.777344 0.214844
vt 0.785156 0.207031
vt 0.800781 0.207031
vt 0.851562 0.222656
vt 0.839844 0.222656
vt 0.839844 0.218750
vt 0.851562 0.218750
vt 0.796875 0.218750
vt 0.796875 0.226562
vt 0.851562 0.207031
vt 0.839844 0.207031
vt 0.855469 0.207031
vt 0.855469 0.218750
vt 0.835938 0.218750
vt 0.835938 0.207031
vt 0.839844 0.203125
vt 0.851562 0.203125
vn -1.0000 0.0000 0.0000
vn 0.0000 0.0000 -1.0000
vn 1.0000 0.0000 0.0000
vn 0.0000 0.0000 1.0000
vn 0.0000 -1.0000 0.0000
vn 0.0000 1.0000 0.0000
vn 0.4829 -0.8756 0.0000
vn -0.4829 0.8756 0.0000
vn 0.8756 0.4829 0.0000
vn -0.8756 -0.4829 0.0000
usemtl None
s off
f 1/1/1 2/2/1 4/3/1 3/4/1
f 3/4/2 4/5/2 8/6/2 7/7/2
f 6/8/3 5/9/3 27/10/3 28/11/3
f 5/9/4 6/12/4 2/13/4 1/1/4
f 3/4/5 7/7/5 5/9/5 1/1/5
f 2/2/6 6/14/6 12/15/6 9/16/6
f 12/17/3 11/18/3 15/19/3 16/20/3
f 8/21/6 4/3/6 10/22/6 11/23/6
f 6/14/6 8/21/6 11/23/6 12/15/6
f 4/3/6 2/2/6 9/16/6 10/22/6
f 10/24/1 9/25/1 13/26/1 14/27/1
f 9/28/4 12/17/4 16/20/4 13/29/4
f 11/18/2 10/24/2 14/27/2 15/19/2
f 19/30/7 20/31/7 17/32/7 18/33/7
f 23/34/8 22/35/8 21/36/8 24/37/8
f 17/32/4 20/31/4 24/38/4 21/39/4
f 19/30/2 18/33/2 22/40/2 23/41/2
f 20/31/9 19/30/9 23/34/9 24/37/9
f 18/33/10 17/32/10 21/42/10 22/43/10
f 25/44/6 28/45/6 32/46/6 29/47/6
f 5/9/3 7/7/3 26/48/3 27/10/3
f 8/49/3 6/8/3 28/11/3 25/50/3
f 7/7/3 8/49/3 25/50/3 26/48/3
f 32/46/3 31/51/3 35/52/3 36/53/3
f 26/54/2 25/55/2 29/47/2 30/56/2
f 28/57/4 27/58/4 31/51/4 32/46/4
f 27/59/5 26/60/5 30/56/5 31/51/5
f 33/61/6 36/62/6 40/63/6 37/64/6
f 31/51/3 30/56/3 34/65/3 35/52/3
f 29/47/3 32/46/3 36/53/3 33/66/3
f 30/56/3 29/47/3 33/66/3 34/65/3
f 38/67/3 37/64/3 40/63/3 39/68/3
f 34/69/2 33/70/2 37/64/2 38/67/2
f 36/71/4 35/72/4 39/68/4 40/63/4
f 35/73/5 34/74/5 38/67/5 39/68/5
