# Blender v2.79 (sub 0) OBJ File: 'untitled.blend'
# www.blender.org
mtllib DigitalBattry.mtl
o Cube_Cube.002
v -1.000000 -1.000000 1.000000
v -1.000000 1.000000 1.000000
v -1.000000 -1.000000 -1.000000
v -1.000000 1.000000 -1.000000
v 1.000000 -1.000000 1.000000
v 1.000000 1.000000 1.000000
v 1.000000 -1.000000 -1.000000
v 1.000000 1.000000 -1.000000
v 1.000000 0.900000 -0.900000
v 1.000000 -0.900000 -0.900000
v 1.000000 -0.900000 0.900000
v 1.000000 0.900000 0.900000
v 1.100000 0.900000 -0.900000
v 1.100000 -0.900000 -0.900000
v 1.100000 -0.900000 0.900000
v 1.100000 0.900000 0.900000
v 0.401672 0.396824 -0.999999
v 0.401672 -0.403176 -0.999999
v -0.398327 -0.403176 -0.999999
v -0.398327 0.396824 -0.999999
v 0.401672 0.396824 -1.099999
v 0.401672 -0.403176 -1.099999
v -0.398327 0.396824 -1.099999
v -0.398327 -0.403176 -1.099999
v 0.315202 0.310354 -1.099999
v 0.315202 -0.316705 -1.099999
v -0.311857 0.310354 -1.099999
v -0.311857 -0.316705 -1.099999
v 0.315202 0.310354 -1.147980
v 0.315202 -0.316705 -1.147980
v -0.311857 0.310354 -1.147980
v -0.311857 -0.316705 -1.147980
v -0.857160 1.000000 0.874159
v -0.857160 1.000000 -0.874159
v -0.442906 1.000000 -0.874159
v -0.442906 1.000000 0.874159
v -0.857160 1.075329 0.874159
v -0.857160 1.075329 -0.874159
v -0.442906 1.075329 -0.874159
v -0.442906 1.075329 0.874159
v -0.495755 1.075338 -0.488742
v -0.495755 1.075338 -0.823372
v -0.804312 1.075338 -0.823372
v -0.804312 1.075338 -0.488742
v -0.804312 1.075338 0.821890
v -0.804312 1.075338 0.487259
v -0.495755 1.075338 0.487259
v -0.495755 1.075338 0.821890
v -0.495755 1.132622 -0.488742
v -0.804312 1.132622 -0.488742
v -0.495755 1.132622 -0.823372
v -0.804312 1.132622 -0.823372
v -0.804312 1.132622 0.821890
v -0.804312 1.132622 0.487259
v -0.495755 1.132622 0.487259
v -0.495755 1.132622 0.821890
v -0.901028 -0.911265 1.000000
v -0.901028 -0.246766 1.000000
v 0.901028 -0.246766 1.000000
v 0.901028 -0.911265 1.000000
v -0.901028 -0.911265 1.064166
v -0.901028 -0.246766 1.064166
v 0.901028 -0.246766 1.064166
v 0.901028 -0.911265 1.064166
vt 0.132812 0.617188
vt 0.132812 0.492188
vt 0.257812 0.492188
vt 0.257812 0.617188
vt 0.257812 0.867188
vt 0.257812 0.742188
vt 0.296875 0.785156
vt 0.296875 0.828125
vt 0.132812 0.867188
vt 0.140625 0.859375
vt 0.250000 0.859375
vt 0.007812 0.742188
vt 0.132812 0.742188
vt 0.125000 0.750000
vt 0.015625 0.750000
vt 0.250000 0.957031
vt 0.140625 0.957031
vt 0.308594 0.703125
vt 0.308594 0.593750
vt 0.316406 0.593750
vt 0.316406 0.703125
vt 0.250000 0.750000
vt 0.140625 0.750000
vt 0.316406 0.585938
vt 0.425781 0.585938
vt 0.425781 0.593750
vt 0.425781 0.710938
vt 0.316406 0.710938
vt 0.425781 0.703125
vt 0.433594 0.593750
vt 0.433594 0.703125
vt 0.402344 0.839844
vt 0.402344 0.792969
vt 0.410156 0.792969
vt 0.410156 0.839844
vt 0.382812 0.742188
vt 0.343750 0.785156
vt 0.382812 0.867188
vt 0.343750 0.828125
vt 0.457031 0.792969
vt 0.453125 0.796875
vt 0.414062 0.796875
vt 0.457031 0.847656
vt 0.410156 0.847656
vt 0.457031 0.839844
vt 0.410156 0.785156
vt 0.457031 0.785156
vt 0.464844 0.792969
vt 0.464844 0.839844
vt 0.367188 0.980469
vt 0.328125 0.980469
vt 0.328125 0.976562
vt 0.367188 0.976562
vt 0.453125 0.835938
vt 0.414062 0.835938
vt 0.328125 0.937500
vt 0.367188 0.937500
vt 0.371094 0.937500
vt 0.371094 0.976562
vt 0.324219 0.976562
vt 0.324219 0.937500
vt 0.328125 0.933594
vt 0.367188 0.933594
vt 0.390625 0.976562
vt 0.390625 0.949219
vt 0.394531 0.949219
vt 0.394531 0.976562
vt 0.257812 0.992188
vt 0.132812 0.992188
vt 0.140625 0.984375
vt 0.250000 0.984375
vt 0.296875 0.914062
vt 0.296875 0.933594
vt 0.277344 0.933594
vt 0.277344 0.914062
vt 0.507812 0.949219
vt 0.507812 0.976562
vt 0.503906 0.976562
vt 0.503906 0.949219
vt 0.394531 0.945312
vt 0.503906 0.945312
vt 0.503906 0.980469
vt 0.394531 0.980469
vt 0.269531 0.984375
vt 0.269531 0.964844
vt 0.273438 0.964844
vt 0.273438 0.984375
vt 0.292969 0.964844
vt 0.292969 0.984375
vt 0.296875 0.964844
vt 0.296875 0.984375
vt 0.296875 0.937500
vt 0.277344 0.937500
vt 0.277344 0.910156
vt 0.296875 0.910156
vt 0.273438 0.960938
vt 0.292969 0.960938
vt 0.292969 0.988281
vt 0.273438 0.988281
vt 0.300781 0.914062
vt 0.300781 0.933594
vt 0.273438 0.933594
vt 0.273438 0.914062
vt 0.511719 0.921875
vt 0.398438 0.921875
vt 0.398438 0.917969
vt 0.511719 0.917969
vt 0.007812 0.867188
vt 0.015625 0.789062
vt 0.125000 0.789062
vt 0.511719 0.875000
vt 0.398438 0.875000
vt 0.515625 0.875000
vt 0.515625 0.917969
vt 0.398438 0.871094
vt 0.511719 0.871094
vt 0.394531 0.917969
vt 0.394531 0.875000
vn -1.0000 0.0000 0.0000
vn -0.0000 0.0000 -1.0000
vn 1.0000 0.0000 0.0000
vn 0.0000 0.0000 1.0000
vn 0.0000 -1.0000 0.0000
vn 0.0000 1.0000 0.0000
usemtl None
s off
f 1/1/1 2/2/1 4/3/1 3/4/1
f 8/5/2 7/6/2 18/7/2 17/8/2
f 8/5/3 6/9/3 12/10/3 9/11/3
f 1/12/4 5/13/4 60/14/4 57/15/4
f 3/4/5 7/6/5 5/13/5 1/1/5
f 6/9/6 8/5/6 35/16/6 36/17/6
f 12/18/4 11/19/4 15/20/4 16/21/4
f 7/6/3 8/5/3 9/11/3 10/22/3
f 6/9/3 5/13/3 11/23/3 12/10/3
f 5/13/3 7/6/3 10/22/3 11/23/3
f 11/24/5 10/25/5 14/26/5 15/20/5
f 9/27/6 12/28/6 16/21/6 13/29/6
f 10/30/2 9/31/2 13/29/2 14/26/2
f 18/32/5 19/33/5 24/34/5 22/35/5
f 14/26/3 13/29/3 16/21/3 15/20/3
f 7/6/2 3/36/2 19/37/2 18/7/2
f 4/38/2 8/5/2 17/8/2 20/39/2
f 3/36/2 4/38/2 20/39/2 19/37/2
f 24/34/2 23/40/2 27/41/2 28/42/2
f 17/43/3 18/44/3 22/35/3 21/45/3
f 19/46/1 20/47/1 23/40/1 24/34/1
f 20/48/6 17/49/6 21/45/6 23/40/6
f 26/50/5 28/51/5 32/52/5 30/53/5
f 23/40/2 21/45/2 25/54/2 27/41/2
f 22/35/2 24/34/2 28/42/2 26/55/2
f 21/45/2 22/35/2 26/55/2 25/54/2
f 32/52/2 31/56/2 29/57/2 30/53/2
f 25/58/3 26/59/3 30/53/3 29/57/3
f 28/60/1 27/61/1 31/56/1 32/52/1
f 27/62/6 25/63/6 29/57/6 31/56/6
f 33/64/4 36/65/4 40/66/4 37/67/4
f 4/68/6 2/69/6 33/70/6 34/71/6
f 2/69/6 6/9/6 36/17/6 33/70/6
f 8/5/6 4/68/6 34/71/6 35/16/6
f 51/72/6 52/73/6 50/74/6 49/75/6
f 35/76/2 34/77/2 38/78/2 39/79/2
f 36/80/3 35/81/3 39/79/3 40/66/3
f 34/82/1 33/83/1 37/67/1 38/78/1
f 45/84/4 48/85/4 56/86/4 53/87/4
f 55/88/6 54/89/6 53/87/6 56/86/6
f 37/67/6 40/66/6 39/79/6 38/78/6
f 47/90/2 46/91/2 54/89/2 55/88/2
f 43/92/1 44/93/1 50/74/1 52/73/1
f 41/94/3 42/95/3 51/72/3 49/75/3
f 48/96/3 47/97/3 55/88/3 56/86/3
f 46/98/1 45/99/1 53/87/1 54/89/1
f 42/100/2 43/101/2 52/73/2 51/72/2
f 44/102/4 41/103/4 49/75/4 50/74/4
f 59/104/6 58/105/6 62/106/6 63/107/6
f 6/9/4 2/108/4 58/109/4 59/110/4
f 5/13/4 6/9/4 59/110/4 60/14/4
f 2/108/4 1/12/4 57/15/4 58/109/4
f 64/111/4 63/107/4 62/106/4 61/112/4
f 60/113/3 59/114/3 63/107/3 64/111/3
f 57/115/5 60/116/5 64/111/5 61/112/5
f 58/117/1 57/118/1 61/112/1 62/106/1
